<?xml version="1.0" standalone="no"?>
<!DOCTYPE svg PUBLIC "-//W3C//DTD SVG 20010904//EN"
 "http://www.w3.org/TR/2001/REC-SVG-20010904/DTD/svg10.dtd">
<svg version="1.0" xmlns="http://www.w3.org/2000/svg"
 width="1400.000000pt" height="1000.000000pt" viewBox="0 0 1400.000000 1000.000000"
 preserveAspectRatio="xMidYMid meet">

<g transform="translate(0.000000,1000.000000) scale(0.100000,-0.100000)"
fill="#000000" stroke="none">
<path d="M9314 9840 l-31 -31 -169 13 c-204 15 -784 15 -1009 -1 -1151 -82
-2181 -367 -3137 -867 -454 -237 -817 -475 -1156 -757 -1164 -969 -1669 -2225
-1462 -3642 66 -456 210 -912 431 -1374 83 -173 89 -204 43 -215 -39 -10 -27
-25 24 -29 26 -2 -5 -3 -68 0 -129 4 -170 -9 -201 -63 -20 -34 -199 -761 -199
-805 0 -31 37 -79 62 -79 238 -6 901 -41 921 -49 16 -6 50 -11 77 -11 l48 0 6
-92 c3 -51 8 -219 11 -373 5 -254 12 -411 31 -653 6 -74 9 -85 29 -92 30 -11
40 -92 13 -109 -37 -23 -132 -282 -126 -343 5 -50 38 -61 185 -62 113 -1 124
1 144 21 20 20 21 25 10 85 -6 34 -13 138 -15 230 l-4 167 31 3 32 3 7 88 c11
129 111 679 136 747 7 19 46 -10 235 -176 l37 -33 0 -570 0 -571 3668 2 3667
3 5 770 5 770 78 114 c135 197 229 419 279 656 31 150 33 483 4 615 -44 201
-154 409 -311 588 l-55 63 0 1309 c0 900 -3 1311 -10 1315 -6 4 -90 9 -186 12
-129 5 -174 9 -170 18 2 6 64 88 136 181 391 499 541 830 557 1225 12 293 -58
609 -182 824 l-34 60 91 92 c69 69 89 96 84 109 -6 15 -23 1 -101 -76 -52 -52
-96 -92 -98 -89 -2 2 -26 36 -54 74 -67 92 -224 243 -343 332 -407 301 -987
506 -1729 611 l-124 17 -12 35 c-16 49 -58 53 -101 10z m356 -475 c43 -22 70
-63 70 -104 0 -34 -50 -86 -1203 -1238 -1350 -1351 -1227 -1241 -1309 -1164
-35 32 -42 45 -42 75 0 36 43 80 1195 1232 656 658 1203 1199 1214 1204 29 13
43 12 75 -5z m-2732 -1239 c279 -52 527 -155 753 -313 42 -29 95 -69 118 -90
l42 -38 -334 -333 -333 -333 -76 46 c-164 99 -305 138 -493 139 -139 1 -220
-13 -342 -59 -279 -105 -494 -346 -575 -646 -19 -70 -23 -109 -22 -234 0 -174
19 -262 85 -404 l39 -83 -29 -37 c-50 -63 -183 -185 -270 -250 -47 -35 -135
-87 -195 -116 -126 -61 -286 -106 -309 -87 -8 7 -41 67 -75 134 -330 661 -245
1451 219 2029 296 367 718 609 1199 685 115 18 484 12 598 -10z m1165 -703
c296 -385 435 -868 387 -1344 -82 -807 -676 -1479 -1461 -1653 -174 -38 -302
-49 -494 -43 -388 13 -752 142 -1068 380 -74 56 -79 62 -61 74 10 7 53 36 95
63 198 129 354 326 448 565 l37 92 70 -51 c364 -267 866 -236 1197 73 127 119
222 277 269 448 32 114 31 363 0 478 -23 83 -86 224 -123 277 l-22 30 334 334
c184 184 337 334 341 334 4 0 27 -26 51 -57z m-922 -680 c-31 -29 -61 -53 -67
-53 -10 0 -45 34 -58 58 -5 7 14 35 49 71 l56 59 38 -41 39 -41 -57 -53z
m-126 -53 c22 -24 39 -6 -170 -190 -195 -172 -196 -173 -132 -100 32 36 106
120 165 187 59 67 110 122 113 122 3 1 14 -8 24 -19z m2595 -3365 l0 -3095
-222 2 -223 3 -3 1903 -2 1902 -83 0 c-45 0 -92 3 -104 6 l-23 6 0 867 1 866
327 317 c180 175 328 318 330 318 1 0 2 -1393 2 -3095z m-3355 2755 c-10 -11
-37 -25 -59 -31 -23 -6 -49 -18 -58 -26 -11 -10 -18 -12 -18 -5 0 7 -6 12 -12
12 -19 0 -168 -98 -168 -110 0 -17 30 -11 68 15 31 22 38 23 40 9 5 -23 -18
-73 -39 -85 -11 -5 -19 -17 -19 -26 0 -8 -13 -31 -30 -49 -16 -19 -35 -55 -41
-79 -6 -25 -14 -45 -18 -45 -4 0 -25 18 -46 40 -37 37 -38 42 -26 63 8 12 31
54 52 92 61 112 106 149 245 200 137 51 155 54 129 25z m-150 -149 c-3 -16
-12 -35 -20 -41 -11 -9 -12 -5 -5 23 8 39 20 61 27 53 3 -2 2 -18 -2 -35z
m-1621 -67 c9 -3 16 -11 16 -18 0 -9 15 -43 68 -148 2 -5 -6 -8 -18 -8 -19 0
-21 -4 -16 -25 5 -21 2 -25 -31 -34 -50 -14 -78 -14 -91 2 -5 6 -22 51 -38 99
-23 72 -26 89 -15 102 21 26 93 42 125 30z m-189 -141 c32 -49 32 -55 -7 -51
-36 3 -59 36 -51 69 8 30 30 23 58 -18z m47 -181 c14 -38 28 -57 50 -68 29
-15 30 -17 24 -67 -4 -28 -12 -60 -18 -71 -14 -28 -49 -66 -61 -66 -18 0 -69
43 -98 83 -31 42 -37 96 -23 200 6 39 10 46 38 54 43 14 64 -2 88 -65z m-146
-184 c3 -12 28 -43 55 -68 l47 -47 -71 -81 c-40 -44 -76 -81 -80 -81 -22 -2
-61 146 -51 192 6 28 68 107 84 107 5 0 12 -10 16 -22z m299 -43 c27 -44 30
-57 30 -129 -1 -126 -10 -131 -76 -39 -29 42 -57 82 -62 89 -4 8 3 28 18 50
14 21 28 48 31 61 9 33 24 25 59 -32z m-210 -391 c-12 -63 -24 -117 -27 -119
-5 -6 -98 207 -98 225 0 6 21 33 47 61 l47 50 26 -51 26 -52 -21 -114z m179
145 l34 -51 -36 -106 -36 -107 -12 49 c-7 27 -18 80 -25 118 -11 60 -10 72 6
108 10 22 22 40 26 40 5 0 24 -23 43 -51z m2764 -2926 l-3 -1908 -192 -3 -193
-2 0 969 c0 651 -3 972 -10 976 -6 4 -69 9 -140 12 l-130 6 0 732 0 732 323
195 c177 108 328 196 335 197 10 1 12 -383 10 -1906z m-4093 1152 c14 -3 23
-10 20 -15 -3 -5 6 -32 20 -60 l26 -51 -36 -14 c-40 -17 -46 -45 -19 -83 9
-13 13 -26 9 -30 -4 -4 -34 -7 -67 -7 -52 0 -62 3 -80 25 -28 35 -18 114 24
191 27 49 36 58 55 54 13 -3 34 -7 48 -10z m-148 -779 c1 -1 -2 -19 -8 -40
l-11 -38 -84 4 c-46 2 -86 7 -89 9 -2 3 0 22 6 43 l11 38 86 -7 c48 -4 88 -8
89 -9z m1437 -513 c11 -37 139 -681 192 -968 30 -165 57 -310 59 -321 3 -12
13 -24 24 -27 28 -7 40 -138 17 -182 -24 -46 -38 -132 -34 -207 l4 -68 -223 0
-223 0 2 871 3 871 70 23 c87 29 102 30 109 8z m-724 -1328 l0 -35 -42 6 c-33
6 -44 4 -55 -11 -12 -17 -13 -14 -13 28 l0 47 55 0 55 0 0 -35z m1220 -70 c0
-84 0 -85 -25 -85 -20 0 -25 -5 -25 -25 l0 -25 -47 18 c-52 19 -56 26 -67 135
l-7 67 86 0 85 0 0 -85z"/>
<path d="M8980 8717 c0 -13 90 -107 103 -107 20 0 2 39 -35 77 -42 43 -68 54
-68 30z"/>
<path d="M8880 8617 c0 -13 90 -107 103 -107 20 0 2 39 -35 77 -42 43 -68 54
-68 30z"/>
<path d="M8776 8523 c-7 -7 92 -113 106 -113 20 0 4 30 -40 73 -50 49 -54 52
-66 40z"/>
<path d="M4210 9205 c0 -33 4 -45 15 -45 11 0 15 12 15 45 0 33 -4 45 -15 45
-11 0 -15 -12 -15 -45z"/>
<path d="M4075 9100 c-3 -5 0 -13 8 -16 23 -8 82 0 82 11 0 14 -82 19 -90 5z"/>
<path d="M4290 9094 c0 -12 9 -14 42 -12 59 4 63 28 4 28 -35 0 -46 -4 -46
-16z"/>
<path d="M4210 8991 c0 -42 14 -61 32 -43 15 15 1 82 -17 82 -11 0 -15 -12
-15 -39z"/>
<path d="M3120 1515 c-152 -153 -191 -198 -182 -207 10 -10 54 29 207 182 107
107 195 200 195 207 0 32 -39 0 -220 -182z"/>
<path d="M2916 911 c-250 -250 -376 -383 -371 -391 5 -8 135 115 391 371 210
210 381 386 378 391 -3 4 -8 8 -12 8 -4 0 -178 -170 -386 -379z"/>
</g>
</svg>
